<svg width="108.839" height="68.799" viewBox="0 0 108.839 68.799" xmlns="http://www.w3.org/2000/svg"><g id="svgGroup" stroke-linecap="round" fill-rule="evenodd" font-size="9pt" stroke="#000" stroke-width="0.25mm" fill="#000000" style="stroke:#000;stroke-width:0.25mm;fill:#000000"><path d="M 83.545 68.799 L 55.615 68.799 L 55.615 0 L 80.615 0 Q 92.108 0 98.147 3.761 A 16.183 16.183 0 0 1 98.779 4.175 A 13.585 13.585 0 0 1 104.679 14.132 A 20.497 20.497 0 0 1 104.834 16.7 Q 104.834 22.803 101.416 26.954 A 15.428 15.428 0 0 1 95.545 31.296 A 21.321 21.321 0 0 1 91.748 32.52 A 27.993 27.993 0 0 1 97.105 33.662 Q 101.531 35.102 104.395 38.013 A 15.315 15.315 0 0 1 108.799 48.144 A 20.352 20.352 0 0 1 108.838 49.414 A 20.164 20.164 0 0 1 107.897 55.726 A 16.207 16.207 0 0 1 102.148 63.697 Q 96.69 67.861 87.752 68.627 A 49.299 49.299 0 0 1 83.545 68.799 Z M 9.326 61.182 L 44.092 61.182 L 44.092 68.799 L 0 68.799 L 0 0 L 9.326 0 L 9.326 61.182 Z M 82.324 36.524 L 64.941 36.524 L 64.941 61.329 L 83.057 61.329 Q 91.602 61.329 95.508 58.155 A 10.174 10.174 0 0 0 98.993 52.479 Q 99.407 50.776 99.414 48.747 A 20.213 20.213 0 0 0 99.414 48.682 Q 99.414 38.425 87.25 36.821 A 37.818 37.818 0 0 0 82.324 36.524 Z M 80.615 7.471 L 64.941 7.471 L 64.941 29.248 L 80.615 29.248 A 31.994 31.994 0 0 0 84.518 29.026 Q 88.961 28.479 91.584 26.581 A 9.594 9.594 0 0 0 91.772 26.441 Q 95.441 23.647 95.459 17.881 A 18.235 18.235 0 0 0 95.459 17.823 Q 95.459 12.256 91.65 9.864 Q 87.879 7.495 80.756 7.471 A 43.377 43.377 0 0 0 80.615 7.471 Z"/></g></svg>