<svg width="524.561" height="69.777" viewBox="0 0 524.561 69.777" xmlns="http://www.w3.org/2000/svg"><g id="svgGroup" stroke-linecap="round" fill-rule="evenodd" font-size="9pt" stroke="#000" stroke-width="0.25mm" fill="#000000" style="stroke:#000;stroke-width:0.25mm;fill:#000000"><path d="M 87.695 59.766 L 87.549 59.766 A 26.856 26.856 0 0 1 85.25 63.284 Q 83.85 65.078 82.286 66.32 A 13.799 13.799 0 0 1 80.542 67.505 A 16.399 16.399 0 0 1 75.925 69.243 Q 73.968 69.676 71.712 69.757 A 29.415 29.415 0 0 1 70.654 69.776 A 27.701 27.701 0 0 1 66.019 69.415 Q 60.798 68.527 57.935 65.455 A 12.6 12.6 0 0 1 55.441 61.32 Q 53.906 57.32 53.906 51.172 L 53.906 15.967 L 62.744 15.967 L 62.744 49.463 A 39.813 39.813 0 0 0 62.889 52.996 Q 63.341 58.053 65.21 60.181 A 7.178 7.178 0 0 0 67.974 62.076 Q 70.235 62.989 73.633 62.989 A 14.904 14.904 0 0 0 78.099 62.352 A 11.68 11.68 0 0 0 83.643 58.643 A 14.536 14.536 0 0 0 86.442 53.278 Q 87.062 51.157 87.236 48.626 A 29.736 29.736 0 0 0 87.305 46.582 L 87.305 15.967 L 96.094 15.967 L 96.094 57.52 Q 96.094 62.11 96.167 64.942 Q 96.23 67.393 96.349 68.491 A 9.062 9.062 0 0 0 96.387 68.799 L 88.086 68.799 A 1.934 1.934 0 0 1 88.066 68.649 Q 88.024 68.265 87.95 67.077 A 200.807 200.807 0 0 1 87.915 66.504 A 72.452 72.452 0 0 1 87.856 65.314 Q 87.778 63.496 87.711 60.491 A 517.949 517.949 0 0 1 87.695 59.766 Z M 491.162 38.184 L 491.162 68.799 L 482.373 68.799 L 482.373 27.247 Q 482.373 22.608 482.3 19.8 A 104.407 104.407 0 0 0 482.261 18.582 Q 482.192 16.752 482.08 15.967 L 490.381 15.967 Q 490.479 16.895 490.552 18.311 A 118.194 118.194 0 0 1 490.619 19.8 A 156.424 156.424 0 0 1 490.674 21.436 A 1536.019 1536.019 0 0 1 490.747 24.082 A 1735.65 1735.65 0 0 1 490.771 25 L 490.918 25 A 26.856 26.856 0 0 1 493.217 21.483 Q 494.617 19.689 496.181 18.446 A 13.799 13.799 0 0 1 497.925 17.261 A 16.399 16.399 0 0 1 502.541 15.523 Q 504.499 15.091 506.755 15.009 A 29.415 29.415 0 0 1 507.812 14.991 Q 513.335 14.991 516.975 16.785 A 11.758 11.758 0 0 1 520.532 19.434 A 13.315 13.315 0 0 1 523.103 23.812 Q 524.538 27.689 524.56 33.418 A 46.53 46.53 0 0 1 524.561 33.594 L 524.561 68.799 L 515.723 68.799 L 515.723 35.303 A 37.108 37.108 0 0 0 515.57 31.806 Q 515.239 28.323 514.19 26.191 A 7.42 7.42 0 0 0 513.281 24.756 Q 511.445 22.516 507.592 21.961 A 19.385 19.385 0 0 0 504.834 21.778 A 14.904 14.904 0 0 0 500.368 22.415 A 11.68 11.68 0 0 0 494.824 26.123 A 14.536 14.536 0 0 0 492.025 31.489 Q 491.405 33.61 491.23 36.141 A 29.736 29.736 0 0 0 491.162 38.184 Z M 180.078 36.768 L 191.943 36.573 L 191.943 33.692 A 23.971 23.971 0 0 0 191.739 30.441 Q 191.236 26.78 189.496 24.775 A 6.85 6.85 0 0 0 189.209 24.463 A 8.302 8.302 0 0 0 186.089 22.512 Q 183.82 21.68 180.615 21.68 A 27.721 27.721 0 0 0 177.625 21.83 Q 174.524 22.167 172.649 23.267 A 6.835 6.835 0 0 0 172.021 23.682 A 7.411 7.411 0 0 0 169.64 26.783 Q 169.151 27.925 168.907 29.34 A 15.216 15.216 0 0 0 168.799 30.079 L 159.619 29.248 A 16.098 16.098 0 0 1 163.074 21.204 Q 168.304 14.991 180.811 14.991 A 34.656 34.656 0 0 1 186.423 15.414 Q 189.363 15.898 191.708 16.933 A 15.12 15.12 0 0 1 195.801 19.556 Q 200.83 24.122 200.83 32.764 L 200.83 55.518 A 24.019 24.019 0 0 0 200.911 57.563 Q 201.088 59.622 201.648 60.958 A 6.043 6.043 0 0 0 201.855 61.402 A 3.458 3.458 0 0 0 204.16 63.191 Q 204.784 63.356 205.542 63.376 A 8.087 8.087 0 0 0 205.762 63.379 A 12.259 12.259 0 0 0 207.619 63.232 A 14.89 14.89 0 0 0 208.643 63.038 L 208.643 68.506 A 29.146 29.146 0 0 1 205.273 69.092 Q 203.564 69.288 201.855 69.288 Q 198.763 69.288 196.737 68.259 A 6.475 6.475 0 0 1 194.751 66.724 Q 192.529 64.161 192.236 58.692 L 191.943 58.692 A 29.402 29.402 0 0 1 189.38 62.586 Q 187.797 64.597 186.021 65.982 A 15.401 15.401 0 0 1 184.106 67.261 Q 179.639 69.776 173.242 69.776 A 23.984 23.984 0 0 1 168.657 69.366 Q 166.056 68.859 164.047 67.723 A 11.864 11.864 0 0 1 161.279 65.577 A 13.947 13.947 0 0 1 157.862 59.203 Q 157.275 56.857 157.275 54.053 A 19.939 19.939 0 0 1 157.913 48.864 A 13.995 13.995 0 0 1 162.671 41.456 A 16.76 16.76 0 0 1 167.396 38.83 Q 171.881 37.142 178.571 36.822 A 64.303 64.303 0 0 1 180.078 36.768 Z M 150.098 30.762 L 141.064 31.446 A 13.891 13.891 0 0 0 140.114 28.059 A 10.57 10.57 0 0 0 137.598 24.463 A 9.056 9.056 0 0 0 133.979 22.444 Q 132.091 21.875 129.688 21.875 A 16.477 16.477 0 0 0 125.791 22.306 A 10.054 10.054 0 0 0 119.58 26.514 A 14.01 14.01 0 0 0 117.936 30.02 Q 116.455 34.575 116.455 42.139 A 53.53 53.53 0 0 0 116.718 47.639 Q 117.299 53.243 119.164 56.731 A 13.662 13.662 0 0 0 119.775 57.764 A 10.727 10.727 0 0 0 127.585 62.692 A 15.554 15.554 0 0 0 129.785 62.842 A 14.278 14.278 0 0 0 133.529 62.373 A 11.044 11.044 0 0 0 137.622 60.303 A 9.676 9.676 0 0 0 140.4 56.582 Q 141.183 54.798 141.504 52.491 L 150.391 53.077 A 20.636 20.636 0 0 1 148.894 58.575 A 17.878 17.878 0 0 1 146.997 61.914 A 18.041 18.041 0 0 1 139.966 67.725 A 21.005 21.005 0 0 1 133.898 69.511 A 27.301 27.301 0 0 1 130.029 69.776 A 27.965 27.965 0 0 1 123.175 68.985 A 18.672 18.672 0 0 1 113.11 62.769 A 22.611 22.611 0 0 1 109.071 55.255 Q 107.275 49.783 107.275 42.334 Q 107.275 33.443 109.882 27.365 A 21.536 21.536 0 0 1 113.135 21.998 A 19.01 19.01 0 0 1 124.479 15.485 A 28.602 28.602 0 0 1 129.932 14.991 A 25.794 25.794 0 0 1 136.062 15.684 A 18.988 18.988 0 0 1 143.384 19.19 A 17.897 17.897 0 0 1 149.634 28.751 A 23.464 23.464 0 0 1 150.098 30.762 Z M 354.297 44.239 L 316.602 44.239 Q 316.602 53.321 320.361 58.252 A 12.198 12.198 0 0 0 328.504 62.973 A 18.346 18.346 0 0 0 331.348 63.184 A 23.203 23.203 0 0 0 335.007 62.913 Q 338.244 62.395 340.503 60.889 A 12.737 12.737 0 0 0 343.316 58.379 A 10.706 10.706 0 0 0 345.166 55.079 L 352.881 57.276 Q 348.32 69.312 332.578 69.759 A 43.374 43.374 0 0 1 331.348 69.776 A 31.384 31.384 0 0 1 324.259 69.024 Q 319.175 67.845 315.57 64.819 A 19.02 19.02 0 0 1 313.501 62.793 Q 308.754 57.384 307.684 47.903 A 52.354 52.354 0 0 1 307.373 42.041 Q 307.373 33.032 310.278 26.916 A 21.286 21.286 0 0 1 313.501 21.973 A 19.86 19.86 0 0 1 324.408 15.673 A 30.155 30.155 0 0 1 331.006 14.991 A 30.844 30.844 0 0 1 337.727 15.677 Q 342.219 16.68 345.49 19.149 A 17.751 17.751 0 0 1 348.486 22.022 Q 352.811 27.255 353.917 36.355 A 55.739 55.739 0 0 1 354.297 43.067 L 354.297 44.239 Z M 272.559 68.799 L 244.629 68.799 L 244.629 0 L 269.629 0 Q 281.122 0 287.161 3.761 A 16.183 16.183 0 0 1 287.793 4.175 A 13.585 13.585 0 0 1 293.692 14.132 A 20.497 20.497 0 0 1 293.848 16.7 Q 293.848 22.803 290.43 26.954 A 15.428 15.428 0 0 1 284.558 31.296 A 21.321 21.321 0 0 1 280.762 32.52 A 27.993 27.993 0 0 1 286.119 33.662 Q 290.544 35.102 293.408 38.013 A 15.315 15.315 0 0 1 297.813 48.144 A 20.352 20.352 0 0 1 297.852 49.414 A 20.164 20.164 0 0 1 296.911 55.726 A 16.207 16.207 0 0 1 291.162 63.697 Q 285.703 67.861 276.765 68.627 A 49.299 49.299 0 0 1 272.559 68.799 Z M 9.326 61.182 L 44.092 61.182 L 44.092 68.799 L 0 68.799 L 0 0 L 9.326 0 L 9.326 61.182 Z M 419.092 61.914 L 419.092 68.409 Q 414.795 69.581 410.205 69.581 A 14.733 14.733 0 0 1 407.167 69.287 Q 404.108 68.642 402.295 66.578 A 9.449 9.449 0 0 1 400.492 63.385 Q 400.004 61.969 399.801 60.232 A 22.619 22.619 0 0 1 399.658 57.618 L 399.658 22.364 L 393.555 22.364 L 393.555 15.967 L 400 15.967 L 402.588 4.151 L 408.447 4.151 L 408.447 15.967 L 418.213 15.967 L 418.213 22.364 L 408.447 22.364 L 408.447 55.713 A 18.505 18.505 0 0 0 408.525 57.476 Q 408.7 59.298 409.269 60.403 A 3.82 3.82 0 0 0 409.692 61.06 Q 410.938 62.598 414.014 62.598 A 11.708 11.708 0 0 0 414.954 62.555 Q 416.024 62.468 417.551 62.203 A 61.143 61.143 0 0 0 419.092 61.914 Z M 374.463 41.26 L 374.463 68.799 L 365.674 68.799 L 365.674 28.272 A 228.641 228.641 0 0 0 365.656 25.415 A 265.778 265.778 0 0 0 365.601 22.413 A 317.691 317.691 0 0 0 365.45 17.633 A 364.032 364.032 0 0 0 365.381 15.967 L 373.682 15.967 A 1642.799 1642.799 0 0 1 373.772 18.072 Q 373.814 19.07 373.85 19.963 A 861.19 861.19 0 0 1 373.853 20.02 Q 373.903 21.262 373.942 22.285 A 560.129 560.129 0 0 1 373.975 23.169 Q 374.022 24.48 374.047 25.372 A 130.201 130.201 0 0 1 374.048 25.415 A 112.622 112.622 0 0 1 374.059 25.838 Q 374.072 26.422 374.072 26.75 A 15.599 15.599 0 0 1 374.072 26.758 L 374.268 26.758 A 45.579 45.579 0 0 1 375.212 23.977 Q 376.282 21.149 377.49 19.336 A 11.775 11.775 0 0 1 378.959 17.599 Q 380.021 16.576 381.234 16.016 A 7.376 7.376 0 0 1 381.396 15.943 A 10.686 10.686 0 0 1 383.598 15.275 Q 385.054 14.991 386.816 14.991 A 13.259 13.259 0 0 1 390.381 15.479 L 390.381 23.536 A 9.54 9.54 0 0 0 389.21 23.278 Q 387.976 23.08 386.266 23.052 A 35.133 35.133 0 0 0 385.693 23.047 Q 380.225 23.047 377.344 27.759 A 16.733 16.733 0 0 0 375.588 31.867 Q 374.472 35.737 374.463 41.174 A 53.357 53.357 0 0 0 374.463 41.26 Z M 465.137 62.989 A 20.45 20.45 0 0 0 468.845 56.93 Q 471.24 51.022 471.24 42.334 A 54.692 54.692 0 0 0 470.771 34.903 Q 469.602 26.41 465.527 21.656 Q 461.51 16.969 454.331 15.578 A 34.877 34.877 0 0 0 447.705 14.991 A 38.664 38.664 0 0 0 445.989 15.028 Q 435.45 15.496 429.956 21.827 Q 424.023 28.663 424.023 42.334 Q 424.023 49.624 425.79 55.038 A 22.869 22.869 0 0 0 429.932 62.72 A 18.455 18.455 0 0 0 431.796 64.647 Q 435.346 67.814 440.466 69.025 A 30.156 30.156 0 0 0 447.412 69.776 A 38.834 38.834 0 0 0 448.206 69.768 Q 452.01 69.69 455.202 68.861 A 19.646 19.646 0 0 0 465.137 62.989 Z M 462.012 42.334 A 58.472 58.472 0 0 0 461.769 36.8 Q 461.124 30.042 458.765 26.441 Q 455.657 21.698 448.502 21.494 A 22.852 22.852 0 0 0 447.852 21.485 A 18.55 18.55 0 0 0 443.647 21.93 Q 439.115 22.985 436.694 26.539 A 16.104 16.104 0 0 0 434.734 30.685 Q 433.455 34.656 433.28 40.453 A 62.393 62.393 0 0 0 433.252 42.334 Q 433.252 52.784 436.646 58.033 A 11.105 11.105 0 0 0 444.697 63.093 A 17.411 17.411 0 0 0 447.314 63.282 Q 452.865 63.282 456.192 60.781 A 10.478 10.478 0 0 0 458.618 58.204 Q 461.706 53.582 461.984 44.23 A 63.854 63.854 0 0 0 462.012 42.334 Z M 271.338 36.524 L 253.955 36.524 L 253.955 61.329 L 272.07 61.329 Q 280.615 61.329 284.521 58.155 A 10.174 10.174 0 0 0 288.007 52.479 Q 288.421 50.776 288.428 48.747 A 20.213 20.213 0 0 0 288.428 48.682 Q 288.428 38.425 276.264 36.821 A 37.818 37.818 0 0 0 271.338 36.524 Z M 269.629 7.471 L 253.955 7.471 L 253.955 29.248 L 269.629 29.248 A 31.994 31.994 0 0 0 273.532 29.026 Q 277.975 28.479 280.597 26.581 A 9.594 9.594 0 0 0 280.786 26.441 Q 284.454 23.647 284.473 17.881 A 18.235 18.235 0 0 0 284.473 17.823 Q 284.473 12.256 280.664 9.864 Q 276.893 7.495 269.77 7.471 A 43.377 43.377 0 0 0 269.629 7.471 Z M 316.699 37.5 L 345.215 37.5 Q 344.482 29.151 340.967 25.318 A 11.353 11.353 0 0 0 335.285 22.002 Q 333.28 21.485 330.859 21.485 Q 324.463 21.485 320.728 25.757 Q 317.342 29.63 316.784 36.13 A 29.614 29.614 0 0 0 316.699 37.5 Z M 191.943 47.071 L 191.943 42.725 L 182.324 42.92 A 51.506 51.506 0 0 0 179.095 43.041 Q 175.266 43.313 172.949 44.19 Q 169.727 45.362 168.018 47.803 A 8.892 8.892 0 0 0 166.716 50.698 Q 166.309 52.268 166.309 54.2 A 12.81 12.81 0 0 0 166.558 56.809 Q 166.898 58.44 167.699 59.683 A 7.151 7.151 0 0 0 168.628 60.84 A 7.518 7.518 0 0 0 172.025 62.782 Q 173.195 63.109 174.589 63.17 A 14.937 14.937 0 0 0 175.244 63.184 A 18.396 18.396 0 0 0 179.968 62.6 A 15.184 15.184 0 0 0 183.838 60.987 Q 187.598 58.789 189.771 54.956 A 16.682 16.682 0 0 0 191.625 50.141 A 14.929 14.929 0 0 0 191.943 47.071 Z"/></g></svg>