<svg id="fe187435-37ac-404f-b16a-41ee1208393e" data-name="Layer 1" xmlns="http://www.w3.org/2000/svg" width="750" height="275" viewBox="0 0 750 275"><defs><style>.bfac5e94-6506-4e59-8562-044eab830567{fill:#fff;}.b9ae2a2b-6777-453c-bde4-45990af1c8c0{fill:#e00;}.feb764ec-07ed-4ae4-b928-ec1ce25dfa89{fill:#f3f3f3;}</style></defs><title>BrandStandards-Logo-Certificarion_Logos-ASSETS</title><path id="b7ad4493-97e8-427b-8f48-d6dbe3e80f6c" data-name="Path 455" d="M194.59-.48h165.5v275H194.59Z"/><g id="af6e6aed-403f-4322-9bb5-3902df55cfc9" data-name="Group 103"><path id="e20e2aa1-8c83-490c-a770-9b594160fdd2" data-name="Path 243" d="M312.82,75.75a7.93,7.93,0,0,1,.18,1.94c0,8.44-10.27,9.91-17.37,9.91-27.6,0-48.2-17.15-48.2-22.38a3.72,3.72,0,0,1,.13-1.1l-2.08,5.14a10.44,10.44,0,0,0-.86,4.16c0,10.27,23.24,25.8,49.78,25.8,11.75,0,20.68-4.4,20.68-12.35,0-.61,0-1.1-1-5.75l-1.28-5.36Z"/><path id="ab7de8eb-a57a-4197-b176-c8b3c3698c9e" data-name="Path 244" class="bfac5e94-6506-4e59-8562-044eab830567" d="M234.08,139v3.91h4.2a2,2,0,1,0,.46-3.91,1.77,1.77,0,0,0-.46,0Zm-4.25-3.64h8.85c3.66,0,6.11,2.4,6.11,5.52a5.25,5.25,0,0,1-3.24,4.87l3.78,6.92h-4.74l-3.27-6.3h-3.24v6.3h-4.25v-17.3Z"/><path id="aa50518c-2a54-4f8e-957e-d2b5c8deb120" data-name="Path 245" class="bfac5e94-6506-4e59-8562-044eab830567" d="M249.89,144.67h5.46a2.89,2.89,0,0,0-2.74-2.08,2.71,2.71,0,0,0-2.72,2.08Zm2.79-5.35c3.81,0,6.6,3,6.6,7.15v1H250a3.38,3.38,0,0,0,3.21,2.08,3.57,3.57,0,0,0,2.62-1l2.65,2.35a7.84,7.84,0,0,1-5.47,2,6.86,6.86,0,0,1-7.11-6.61s0-.11,0-.16a6.72,6.72,0,0,1,6.66-6.78Z"/><path id="a944f287-f1a3-4e5b-bae4-7dd1e1940218" data-name="Path 246" class="bfac5e94-6506-4e59-8562-044eab830567" d="M268.56,149.39a3.86,3.86,0,0,0,2.76-1v-4.57a4,4,0,0,0-2.76-1,3.32,3.32,0,0,0-.23,6.63Zm2.81,2.27a5.8,5.8,0,0,1-3.51,1.14,6.71,6.71,0,0,1,.33-13.42,6.59,6.59,0,0,1,3.13.86v-4.92l4-.87v18.18h-4v-1Z"/><path id="ab3e50a4-2ea1-4e02-925f-7f745280c6d8" data-name="Path 247" class="bfac5e94-6506-4e59-8562-044eab830567" d="M283.77,135.32H288V142h7.12v-6.65h4.25v17.31h-4.25v-6.78H288v6.77h-4.25Z"/><path id="f80ab2e7-3f07-431e-8175-f0929a40148e" data-name="Path 248" class="bfac5e94-6506-4e59-8562-044eab830567" d="M307.6,150a5,5,0,0,0,2.5-.62v-1.68a10.47,10.47,0,0,0-2.37-.3c-1.31,0-2.18.42-2.18,1.29s.77,1.31,2.06,1.31Zm-5.86-1.24c0-2.52,2-3.93,5.39-3.93a11.85,11.85,0,0,1,3,.37v-.64c0-1.31-.84-2-2.5-2a10.62,10.62,0,0,0-4,1l-1.44-3a14.68,14.68,0,0,1,6.11-1.43c3.58,0,5.73,1.75,5.73,4.94v8.39H310.1v-.8a6.1,6.1,0,0,1-3.61,1c-2.92,0-4.75-1.76-4.75-4.06Z"/><path id="bd06c533-ac0a-45af-a9ff-5893b56eca55" data-name="Path 249" class="bfac5e94-6506-4e59-8562-044eab830567" d="M318.34,142.88h-2.65v-3.33h2.65v-3.36l4-.87v4.23H326v3.34h-3.66v5c0,1.18.47,1.58,1.73,1.58a6.09,6.09,0,0,0,1.8-.27v3.24a12.52,12.52,0,0,1-2.79.4c-3.06,0-4.75-1.36-4.75-4.16v-5.76Z"/><path id="adb67586-45fb-4e3c-a035-ab618175385d" data-name="Path 250" class="bfac5e94-6506-4e59-8562-044eab830567" d="M241.09,172.29l2.43,2.38a8.24,8.24,0,0,1-6.27,2.9,7.75,7.75,0,1,1-.64-15.49h.64a8.32,8.32,0,0,1,6.38,2.95l-2.5,2.45a4.76,4.76,0,0,0-3.88-2,4.22,4.22,0,0,0-4.28,4.17v.19a4.27,4.27,0,0,0,4.22,4.31h.18a4.63,4.63,0,0,0,3.72-1.87Z"/><path id="beabc8f1-1ac4-48c2-99c3-22fa97b85f9f" data-name="Path 251" class="bfac5e94-6506-4e59-8562-044eab830567" d="M247.9,170.44h4.74a2.51,2.51,0,0,0-2.38-1.8,2.36,2.36,0,0,0-2.36,1.8Zm2.42-4.64c3.31,0,5.74,2.6,5.74,6.21v.86H248a2.94,2.94,0,0,0,2.79,1.8,3.08,3.08,0,0,0,2.28-.86l2.3,2a6.87,6.87,0,0,1-4.75,1.72,6,6,0,0,1-6.18-5.74c0-.05,0-.1,0-.15a5.84,5.84,0,0,1,5.79-5.88Z"/><path id="fa6956e8-00c6-4b50-b625-d8a4337b0efc" data-name="Path 252" class="bfac5e94-6506-4e59-8562-044eab830567" d="M258.08,166h3.48v1.14a3.73,3.73,0,0,1,3-1.4,2.56,2.56,0,0,1,1.31.28v3a3.9,3.9,0,0,0-1.65-.34,3.08,3.08,0,0,0-2.64,1.44v7.21h-3.48Z"/><path id="b27a63d2-e2bc-4cdf-a1ce-508fa3752847" data-name="Path 253" class="bfac5e94-6506-4e59-8562-044eab830567" d="M269.61,168.89h-2.3V166h2.3v-2.92l3.48-.75V166h3.18v2.9h-3.18v4.32c0,1,.41,1.38,1.5,1.38a5.25,5.25,0,0,0,1.57-.24v2.81a10.55,10.55,0,0,1-2.43.34c-2.66,0-4.12-1.18-4.12-3.61v-5Z"/><path id="baab1728-4710-4fb1-905c-c0f7f83378b0" data-name="Path 254" class="bfac5e94-6506-4e59-8562-044eab830567" d="M281.48,177.36H278V166h3.47ZM277.83,163a1.92,1.92,0,1,1,1.91,1.91A1.91,1.91,0,0,1,277.83,163Z"/><path id="b40943b4-ccca-4db7-b8c2-056e41df763e" data-name="Path 255" class="bfac5e94-6506-4e59-8562-044eab830567" d="M285.82,166v-.68c0-2.6,1.55-4.15,4.62-4.15a8.28,8.28,0,0,1,1.85.22v2.87a7.88,7.88,0,0,0-1.38-.15c-1.07,0-1.61.41-1.61,1.27V166h3v2.9h-3v8.47h-3.48v-8.47h-2.49V166Z"/><path id="a6c4b624-b9f3-441b-aa0b-3dbd14a5f19e" data-name="Path 256" class="bfac5e94-6506-4e59-8562-044eab830567" d="M297.61,177.36h-3.48V166h3.48ZM294,163a1.91,1.91,0,1,1,1.91,1.91A1.92,1.92,0,0,1,294,163Z"/><path id="e566f7d4-9571-4850-aa23-99bfbcf10abf" data-name="Path 257" class="bfac5e94-6506-4e59-8562-044eab830567" d="M303.13,170.44h4.75a2.51,2.51,0,0,0-2.39-1.8A2.37,2.37,0,0,0,303.13,170.44Zm2.43-4.64c3.31,0,5.73,2.6,5.73,6.21v.86h-8.1a3,3,0,0,0,2.8,1.8,3.05,3.05,0,0,0,2.27-.86l2.3,2a6.82,6.82,0,0,1-4.74,1.72,6,6,0,0,1-6.18-5.74.76.76,0,0,1,0-.15,5.83,5.83,0,0,1,5.79-5.88Z"/><path id="e9c2a985-8b09-4434-b1cd-28bb93439a34" data-name="Path 258" class="bfac5e94-6506-4e59-8562-044eab830567" d="M319.35,174.54a3.29,3.29,0,0,0,2.4-.9v-4a3.53,3.53,0,0,0-2.4-.88,2.88,2.88,0,1,0-.19,5.76Zm2.45,2a5.17,5.17,0,0,1-3.05,1,5.83,5.83,0,1,1,3-10.91v-4.28l3.48-.75v15.79H321.8v-.84Z"/><path id="b0f16476-424a-40e5-b6c4-e2bb9d005263" data-name="Path 259" class="b9ae2a2b-6777-453c-bde4-45990af1c8c0" d="M295.63,87.61c7.1,0,17.37-1.47,17.37-9.91a8.44,8.44,0,0,0-.17-1.94L308.6,57.4c-1-4-1.84-5.88-8.93-9.42-5.5-2.82-17.49-7.46-21-7.46-3.3,0-4.28,4.28-8.19,4.28s-6.6-3.18-10.15-3.18-5.63,2.32-7.34,7.09c0,0-4.77,13.46-5.39,15.41a3.41,3.41,0,0,0-.12,1.1c0,5.23,20.59,22.38,48.19,22.38m18.47-6.48c1,4.65,1,5.14,1,5.75,0,7.95-8.93,12.35-20.67,12.35-26.54,0-49.78-15.53-49.78-25.81a10.55,10.55,0,0,1,.85-4.15c-9.54.48-21.89,2.2-21.89,13.08,0,17.86,42.32,39.88,75.83,39.88,25.69,0,32.17-11.62,32.17-20.8,0-7.21-6.24-15.41-17.49-20.3"/><path id="f1eb497a-c155-4067-9985-6fce8a8474a6" data-name="Path 260" class="bfac5e94-6506-4e59-8562-044eab830567" d="M237.37,215.25h10.08v1.8h-8v4.1h5.27v1.76h-5.27v4.22h8.1v1.8H237.37Z"/><path id="af37d9b6-7e95-4a23-b5fc-5b7f431aee39" data-name="Path 261" class="bfac5e94-6506-4e59-8562-044eab830567" d="M249.77,219h2v1a4,4,0,0,1,3-1.19,3.71,3.71,0,0,1,3.87,3.54v6.6h-1.94V223a2.32,2.32,0,0,0-2.1-2.52,2.29,2.29,0,0,0-.37,0,2.8,2.8,0,0,0-2.45,1.29v7.15h-1.95V219Z"/><path id="a8ee31ff-6640-4443-8aec-d0d4e2c151cf" data-name="Path 262" class="bfac5e94-6506-4e59-8562-044eab830567" d="M266,227.3a3.58,3.58,0,0,0,2.73-1.15v-4.49a3.58,3.58,0,0,0-2.73-1.15,3.4,3.4,0,0,0,0,6.79Zm-5.24-3.4a5,5,0,0,1,4.93-5.1h.11a4.84,4.84,0,0,1,3,1V219h1.93v10c0,2.61-1.64,4-4.55,4a8.22,8.22,0,0,1-4-1l.76-1.52a6.73,6.73,0,0,0,3.18.86c1.74,0,2.66-.8,2.66-2.36V228a4.61,4.61,0,0,1-3,1.05,5,5,0,0,1-5-5v-.12Z"/><path id="a235db0f-ddc8-4158-b31b-622b61ed23fb" data-name="Path 263" class="bfac5e94-6506-4e59-8562-044eab830567" d="M275.33,228.92h-1.95V219h1.95v9.93Zm-2.19-12.75a1.23,1.23,0,0,1,1.21-1.21,1.22,1.22,0,0,1,0,2.43A1.24,1.24,0,0,1,273.14,216.17Z"/><path id="bda68d5a-9462-4de5-885d-c486c81accc2" data-name="Path 264" class="bfac5e94-6506-4e59-8562-044eab830567" d="M278,219h2v1a4,4,0,0,1,3-1.19,3.71,3.71,0,0,1,3.87,3.53v6.61h-1.94V223a2.32,2.32,0,0,0-2.1-2.52,2.41,2.41,0,0,0-.38,0,2.8,2.8,0,0,0-2.44,1.29v7.15H278V219Z"/><path id="ed7d5a6c-fa33-4f08-a8c7-56178382a315" data-name="Path 265" class="bfac5e94-6506-4e59-8562-044eab830567" d="M291,223.12h5.9a3,3,0,0,0-5.9,0Zm3-4.3a4.93,4.93,0,0,1,4.81,5,.86.86,0,0,1,0,.16v.56H291a3.34,3.34,0,0,0,3.35,2.85,3.85,3.85,0,0,0,2.52-.87l1.25,1.23a5.83,5.83,0,0,1-3.84,1.3,5.09,5.09,0,0,1-5.21-5,.66.66,0,0,1,0-.14,5,5,0,0,1,4.87-5.11Z"/><path id="bd720fbb-6713-4259-838b-d1ad13b2d64e" data-name="Path 266" class="bfac5e94-6506-4e59-8562-044eab830567" d="M302.58,223.12h5.9a3,3,0,0,0-5.9,0Zm3-4.3a4.93,4.93,0,0,1,4.81,5s0,.11,0,.16v.56h-7.85a3.35,3.35,0,0,0,3.36,2.85,3.85,3.85,0,0,0,2.52-.87l1.25,1.23a5.85,5.85,0,0,1-3.85,1.3,5.11,5.11,0,0,1-5.21-5v-.14a5,5,0,0,1,4.87-5.11Z"/><path id="e00c0518-0a36-4e4b-9386-57efce1d8e3e" data-name="Path 267" class="bfac5e94-6506-4e59-8562-044eab830567" d="M312.64,219h1.95v1.22a3.21,3.21,0,0,1,2.71-1.44,2.73,2.73,0,0,1,1,.16v1.75a3.61,3.61,0,0,0-1.17-.21,2.68,2.68,0,0,0-2.56,1.8v6.66h-1.95V219Z"/><path id="a8709dca-569c-4192-af2e-d7d7782adbd3" data-name="Path 268" class="bfac5e94-6506-4e59-8562-044eab830567" d="M326.63,196.87H228.52v-1h98.11v1Z"/></g><path id="a408128e-3cee-477d-9085-a448baf5df34" data-name="Path 453" class="b9ae2a2b-6777-453c-bde4-45990af1c8c0" d="M389.59-.48h165.5v275H389.59Z"/><g id="bbc9f830-c37f-4ae3-9103-5fb8e7fd8aa6" data-name="Group 101"><path id="fb93f125-2def-493d-8c87-e2a3af993c45" data-name="Path 269" class="bfac5e94-6506-4e59-8562-044eab830567" d="M429.17,138.9v3.94h4.24a2,2,0,0,0,.47-3.94,3.69,3.69,0,0,0-.47,0Zm-4.29-3.66h8.93c3.69,0,6.16,2.42,6.16,5.56a5.31,5.31,0,0,1-3.27,4.91l3.82,7h-4.79l-3.29-6.35h-3.27v6.35h-4.29V135.24Z"/><path id="b3b14495-753e-44e0-9445-2be869f1bcbd" data-name="Path 270" class="bfac5e94-6506-4e59-8562-044eab830567" d="M444.89,144.65h5.51a2.92,2.92,0,0,0-2.76-2.1A2.76,2.76,0,0,0,444.89,144.65Zm2.82-5.39c3.84,0,6.66,3,6.66,7.21v1H445a3.4,3.4,0,0,0,3.24,2.09,3.51,3.51,0,0,0,2.64-1l2.67,2.37a7.92,7.92,0,0,1-5.51,2,6.94,6.94,0,0,1-7.18-6.67v-.17a6.76,6.76,0,0,1,6.71-6.83Z"/><path id="a0f5bc28-a53f-4fc1-b3c8-acdf4e6f63d3" data-name="Path 271" class="bfac5e94-6506-4e59-8562-044eab830567" d="M463.57,149.43a3.85,3.85,0,0,0,2.79-1.05v-4.61a4.1,4.1,0,0,0-2.79-1,3.34,3.34,0,1,0-.23,6.68Zm2.84,2.29a5.88,5.88,0,0,1-3.54,1.15,6.77,6.77,0,0,1,.33-13.54,6.87,6.87,0,0,1,3.16.87v-5l4-.87V152.7h-4v-1Z"/><path id="b2e9e39e-1403-49da-86b7-7dc35b9860d5" data-name="Path 272" class="bfac5e94-6506-4e59-8562-044eab830567" d="M478.68,135.24H483V142h7.18v-6.71h4.29v17.45h-4.29v-6.83H483v6.83h-4.29Z"/><path id="a73a2b58-7a35-449f-a374-af867aa0c5d7" data-name="Path 273" class="bfac5e94-6506-4e59-8562-044eab830567" d="M502.57,150.06a5.07,5.07,0,0,0,2.52-.63v-1.7a10.8,10.8,0,0,0-2.4-.3c-1.32,0-2.2.43-2.2,1.3s.77,1.33,2.07,1.33Zm-5.91-1.25c0-2.54,2-4,5.43-4a11.69,11.69,0,0,1,3,.37v-.65c0-1.32-.85-2-2.52-2a10.83,10.83,0,0,0-4,1.05l-1.45-3a14.76,14.76,0,0,1,6.16-1.44c3.62,0,5.79,1.77,5.79,5v8.46h-4v-.8a6.19,6.19,0,0,1-3.64,1c-2.95,0-4.79-1.77-4.79-4.09Z"/><path id="f1b0d8d3-f542-4612-9ea9-f46898ef8533" data-name="Path 274" class="bfac5e94-6506-4e59-8562-044eab830567" d="M513.23,142.87h-2.67V139.5h2.67v-3.39l4-.87v4.26H521v3.37h-3.69v5c0,1.2.47,1.6,1.74,1.6a5.9,5.9,0,0,0,1.82-.27v3.26a12.14,12.14,0,0,1-2.81.4c-3.1,0-4.79-1.37-4.79-4.19v-5.81Z"/><path id="a87dfe92-2de2-42bb-aa49-eddc7d61e434" data-name="Path 275" class="bfac5e94-6506-4e59-8562-044eab830567" d="M436.24,172.28l2.45,2.4a8.3,8.3,0,0,1-6.33,2.93,7.82,7.82,0,0,1-.68-15.62c.22,0,.45,0,.68,0a8.33,8.33,0,0,1,6.43,3l-2.51,2.47a4.87,4.87,0,0,0-3.92-2,4.27,4.27,0,0,0-4.31,4.21v.19a4.31,4.31,0,0,0,4.26,4.36h.18a4.66,4.66,0,0,0,3.75-1.89Z"/><path id="facbcee8-9f3a-4440-870e-3d072aaa5eee" data-name="Path 276" class="bfac5e94-6506-4e59-8562-044eab830567" d="M442.9,170.41h4.79a2.54,2.54,0,0,0-2.4-1.82,2.39,2.39,0,0,0-2.38,1.82Zm2.45-4.68c3.34,0,5.79,2.62,5.79,6.26v.87H443a3,3,0,0,0,2.82,1.82,3.09,3.09,0,0,0,2.3-.87l2.31,2.06a6.84,6.84,0,0,1-4.78,1.73,6,6,0,0,1-6.24-5.79v-.14a5.89,5.89,0,0,1,5.83-5.94h.14Z"/><path id="ae0d591d-b88b-4404-bde6-c4caae654081" data-name="Path 277" class="bfac5e94-6506-4e59-8562-044eab830567" d="M453.06,165.93h3.51v1.15a3.77,3.77,0,0,1,3-1.41,2.54,2.54,0,0,1,1.32.28V169a4,4,0,0,0-1.67-.34,3.11,3.11,0,0,0-2.66,1.45v7.28h-3.51Z"/><path id="f4931ddc-4134-4267-a137-16cb207f3a81" data-name="Path 278" class="bfac5e94-6506-4e59-8562-044eab830567" d="M464.59,168.86h-2.32v-2.92h2.32V163l3.51-.76v3.7h3.21v2.93H468.1v4.35c0,1,.41,1.39,1.52,1.39a5.31,5.31,0,0,0,1.58-.24v2.84a10.64,10.64,0,0,1-2.45.34c-2.69,0-4.16-1.19-4.16-3.64v-5Z"/><path id="a690ccb9-37ee-4c67-8ee7-2ea27e01cfdd" data-name="Path 279" class="bfac5e94-6506-4e59-8562-044eab830567" d="M476.5,177.4H473V165.94h3.51ZM472.82,163a1.93,1.93,0,1,1,1.92,1.93h0A1.92,1.92,0,0,1,472.82,163Z"/><path id="b60a511a-60db-4d31-a46c-6d7397b6e3d7" data-name="Path 280" class="bfac5e94-6506-4e59-8562-044eab830567" d="M480.8,165.94v-.69c0-2.62,1.56-4.18,4.65-4.18a8.38,8.38,0,0,1,1.87.21v2.9a7.21,7.21,0,0,0-1.39-.15c-1.08,0-1.62.41-1.62,1.28v.63h3v2.92h-3v8.54H480.8v-8.54h-2.52v-2.92Z"/><path id="b4dd35bd-a9d0-4446-9b0d-e54ddf49ab36" data-name="Path 281" class="bfac5e94-6506-4e59-8562-044eab830567" d="M492.62,177.4h-3.51V165.94h3.51ZM488.94,163a1.93,1.93,0,1,1,1.93,1.93A1.92,1.92,0,0,1,488.94,163Z"/><path id="a57056bd-9f22-4883-8fa3-5de232fc6643" data-name="Path 282" class="bfac5e94-6506-4e59-8562-044eab830567" d="M498.08,170.41h4.79a2.54,2.54,0,0,0-2.4-1.82,2.38,2.38,0,0,0-2.38,1.82Zm2.45-4.68c3.34,0,5.78,2.62,5.78,6.26v.87h-8.16a3,3,0,0,0,2.81,1.82,3.06,3.06,0,0,0,2.3-.87l2.32,2.06a6.86,6.86,0,0,1-4.79,1.73,6,6,0,0,1-6.23-5.79.71.71,0,0,0,0-.14,5.9,5.9,0,0,1,5.84-5.94Z"/><path id="f1194cca-db12-4e73-b5d7-20790c35cf95" data-name="Path 283" class="bfac5e94-6506-4e59-8562-044eab830567" d="M514.24,174.56a3.37,3.37,0,0,0,2.43-.91v-4a3.56,3.56,0,0,0-2.43-.88,2.9,2.9,0,0,0,0,5.8Zm2.47,2a5.08,5.08,0,0,1-3.07,1,5.88,5.88,0,1,1,.27-11.76,6.08,6.08,0,0,1,2.76.76v-4.31l3.51-.76v15.93h-3.47v-.85Z"/><path id="f41329f5-c7b7-46a1-8e85-ca2d20cd1e9f" data-name="Path 284" class="bfac5e94-6506-4e59-8562-044eab830567" d="M490.63,88C497.72,88,508,86.52,508,78a8.13,8.13,0,0,0-.18-2L503.6,57.54c-1-4.07-1.84-5.92-8.93-9.5-5.51-2.84-17.49-7.53-21-7.53-3.3,0-4.28,4.32-8.2,4.32s-6.6-3.21-10.15-3.21-5.62,2.35-7.34,7.16c0,0-4.77,13.56-5.38,15.54a3.44,3.44,0,0,0-.12,1.11C442.44,70.7,463,88,490.63,88m18.47-6.54c1,4.69,1,5.18,1,5.8,0,8-8.93,12.46-20.67,12.46-26.54,0-49.78-15.66-49.78-26a10.62,10.62,0,0,1,.85-4.2c-9.54.49-21.89,2.22-21.89,13.2,0,18,42.32,40.21,75.83,40.21,25.69,0,32.17-11.72,32.17-21,0-7.28-6.24-15.54-17.49-20.47"/><path id="e81096d6-5e20-4a98-87c8-38bd1611f66e" data-name="Path 285" class="bfac5e94-6506-4e59-8562-044eab830567" d="M432.49,215.1h10.16v1.82h-8.09v4.13h5.31v1.77h-5.31v4.25h8.17v1.82H432.49Z"/><path id="ad00f9e7-e044-4b42-b1fb-9825886687e5" data-name="Path 286" class="bfac5e94-6506-4e59-8562-044eab830567" d="M444.75,218.87h2v1a4.11,4.11,0,0,1,3-1.2,3.73,3.73,0,0,1,3.9,3.56v6.65h-1.95v-6a2.35,2.35,0,0,0-2.12-2.54h-.38a2.82,2.82,0,0,0-2.47,1.3v7.2h-2v-10Z"/><path id="a3ce2a69-7fd4-48e3-8fa5-db865b569edc" data-name="Path 287" class="bfac5e94-6506-4e59-8562-044eab830567" d="M461.05,227.25a3.58,3.58,0,0,0,2.75-1.16v-4.53a3.61,3.61,0,0,0-2.75-1.16,3.43,3.43,0,0,0,0,6.85Zm-5.28-3.42a5.06,5.06,0,0,1,5-5.14h.11a4.86,4.86,0,0,1,3,1v-.83h1.94V229c0,2.64-1.65,4.06-4.58,4.06a8.35,8.35,0,0,1-4-1l.77-1.54a6.8,6.8,0,0,0,3.21.87c1.75,0,2.68-.81,2.68-2.39V227.9a4.68,4.68,0,0,1-3,1.06,5,5,0,0,1-5-5v-.11Z"/><path id="a5dc81ee-c3f0-4fc6-a47d-b00811db3ea5" data-name="Path 288" class="bfac5e94-6506-4e59-8562-044eab830567" d="M470.34,228.89h-2v-10h2v10ZM468.14,216a1.2,1.2,0,1,1,1.22,1.22,1.22,1.22,0,0,1-1.22-1.22Z"/><path id="bc052354-0c87-45e7-b499-2fb01a1d4f5e" data-name="Path 289" class="bfac5e94-6506-4e59-8562-044eab830567" d="M472.94,218.87h2v1a4.1,4.1,0,0,1,3-1.2,3.72,3.72,0,0,1,3.9,3.56,2,2,0,0,1,0,.35v6.3h-1.94v-6a2.35,2.35,0,0,0-2.12-2.54h-.38a2.8,2.8,0,0,0-2.46,1.3v7.2h-2v-10Z"/><path id="b44a9c58-cd1b-42c4-86cf-80c92079ca1a" data-name="Path 290" class="bfac5e94-6506-4e59-8562-044eab830567" d="M485.93,223h5.94a3,3,0,0,0-5.94,0Zm3.05-4.33a5,5,0,0,1,4.85,5.07,1,1,0,0,1,0,.17v.57h-7.91a3.38,3.38,0,0,0,3.38,2.87,3.89,3.89,0,0,0,2.54-.88l1.26,1.24a5.91,5.91,0,0,1-3.87,1.31A5.15,5.15,0,0,1,484,224v-.15a5,5,0,0,1,4.91-5.15Z"/><path id="e74e1440-c781-41b8-91d9-7bd71e74b882" data-name="Path 291" class="bfac5e94-6506-4e59-8562-044eab830567" d="M497.53,223h6a3,3,0,0,0-6,0Zm3.06-4.33a5,5,0,0,1,4.85,5.07,1,1,0,0,0,0,.17v.57h-7.92a3.39,3.39,0,0,0,3.39,2.87,3.89,3.89,0,0,0,2.54-.88l1.26,1.24a5.92,5.92,0,0,1-3.88,1.31,5.14,5.14,0,0,1-5.25-5.05.38.38,0,0,1,0-.15,5,5,0,0,1,4.91-5.15Z"/><path id="a0efd8ca-13b1-4f37-965b-7b2f21bcf02e" data-name="Path 292" class="bfac5e94-6506-4e59-8562-044eab830567" d="M507.48,218.87h2v1.24a3.22,3.22,0,0,1,2.73-1.46,3,3,0,0,1,1,.16v1.77a3.68,3.68,0,0,0-1.18-.22,2.7,2.7,0,0,0-2.58,1.82v6.71h-2Z"/><path id="e9234d53-4cc0-4215-85ef-e1f4fd91773a" data-name="Path 293" class="bfac5e94-6506-4e59-8562-044eab830567" d="M521.59,196.57h-98v-1h98Z"/></g><path id="a82153d7-3c7e-4259-bb58-8bf1e136d395" data-name="Path 454" class="feb764ec-07ed-4ae4-b928-ec1ce25dfa89" d="M584.59-.48h165.5v275H584.59Z"/><g id="b893ae43-4a3f-44c1-8209-ba6703876347" data-name="Group 102"><path id="abca360e-8c64-4dff-a8d3-0f9ba7147bca" data-name="Path 269-2" d="M624.17,138.9v3.94h4.24a2,2,0,0,0,.47-3.94,3.69,3.69,0,0,0-.47,0Zm-4.29-3.66h8.93c3.69,0,6.16,2.42,6.16,5.56a5.31,5.31,0,0,1-3.27,4.91l3.82,7h-4.79l-3.29-6.35h-3.27v6.35h-4.29V135.24Z"/><path id="a2ce9bed-4102-4ff3-ae20-af56d369ecb5" data-name="Path 270-2" d="M639.89,144.65h5.51a2.92,2.92,0,0,0-2.76-2.1A2.76,2.76,0,0,0,639.89,144.65Zm2.82-5.39c3.84,0,6.66,3,6.66,7.21v1H640a3.4,3.4,0,0,0,3.24,2.09,3.51,3.51,0,0,0,2.64-1l2.67,2.37a7.92,7.92,0,0,1-5.51,2,6.94,6.94,0,0,1-7.18-6.67v-.17a6.76,6.76,0,0,1,6.71-6.83Z"/><path id="a2d46310-e4e5-4f47-80c8-08e5a6ba613f" data-name="Path 271-2" d="M658.57,149.43a3.85,3.85,0,0,0,2.79-1.05v-4.61a4.1,4.1,0,0,0-2.79-1,3.34,3.34,0,1,0-.23,6.68Zm2.84,2.29a5.88,5.88,0,0,1-3.54,1.15,6.77,6.77,0,0,1,.33-13.54,6.87,6.87,0,0,1,3.16.87v-5l4-.87V152.7h-4v-1Z"/><path id="e59324c7-0ece-4cc0-b0f8-fbf98a594ec3" data-name="Path 272-2" d="M673.68,135.24H678V142h7.18v-6.71h4.29v17.45h-4.29v-6.83H678v6.83h-4.29Z"/><path id="e9e7cf62-8381-4b1f-b598-27070b7c546f" data-name="Path 273-2" d="M697.57,150.06a5.07,5.07,0,0,0,2.52-.63v-1.7a10.8,10.8,0,0,0-2.4-.3c-1.32,0-2.2.43-2.2,1.3s.77,1.33,2.07,1.33Zm-5.91-1.25c0-2.54,2-4,5.43-4a11.69,11.69,0,0,1,3,.37v-.65c0-1.32-.85-2-2.52-2a10.83,10.83,0,0,0-4,1.05l-1.45-3a14.76,14.76,0,0,1,6.16-1.44c3.62,0,5.79,1.77,5.79,5v8.46h-4v-.8a6.19,6.19,0,0,1-3.64,1c-3,0-4.79-1.77-4.79-4.09Z"/><path id="afc1bca8-6d10-4a0e-a8fb-47b90613416b" data-name="Path 274-2" d="M708.23,142.87h-2.67V139.5h2.67v-3.39l4-.87v4.26H716v3.37h-3.69v5c0,1.2.47,1.6,1.74,1.6a5.9,5.9,0,0,0,1.82-.27v3.26a12.14,12.14,0,0,1-2.81.4c-3.1,0-4.79-1.37-4.79-4.19v-5.81Z"/><path id="ef03dc50-68fa-4a3b-bbce-e2ecaad4f0d8" data-name="Path 275-2" d="M631.24,172.28l2.45,2.4a8.3,8.3,0,0,1-6.33,2.93,7.82,7.82,0,0,1-.68-15.62c.22,0,.45,0,.68,0a8.33,8.33,0,0,1,6.43,3l-2.51,2.47a4.87,4.87,0,0,0-3.92-2,4.27,4.27,0,0,0-4.31,4.21v.19a4.31,4.31,0,0,0,4.26,4.36h.18a4.66,4.66,0,0,0,3.75-1.89Z"/><path id="ae599234-d290-443e-aa95-d95679f26f2a" data-name="Path 276-2" d="M637.9,170.41h4.79a2.54,2.54,0,0,0-2.4-1.82,2.39,2.39,0,0,0-2.38,1.82Zm2.45-4.68c3.34,0,5.79,2.62,5.79,6.26v.87H638a3,3,0,0,0,2.82,1.82,3.09,3.09,0,0,0,2.3-.87l2.31,2.06a6.84,6.84,0,0,1-4.78,1.73,6,6,0,0,1-6.24-5.79v-.14a5.89,5.89,0,0,1,5.83-5.94h.14Z"/><path id="b8fc3adc-fa17-4fc4-b511-a3b699a98671" data-name="Path 277-2" d="M648.06,165.93h3.51v1.15a3.77,3.77,0,0,1,3-1.41,2.54,2.54,0,0,1,1.32.28V169a4,4,0,0,0-1.67-.34,3.11,3.11,0,0,0-2.66,1.45v7.28h-3.51Z"/><path id="a9d9af52-cf87-4ebe-b7da-62824f9c3659" data-name="Path 278-2" d="M659.59,168.86h-2.32v-2.92h2.32V163l3.51-.76v3.7h3.21v2.93H663.1v4.35c0,1,.41,1.39,1.52,1.39a5.31,5.31,0,0,0,1.58-.24v2.84a10.64,10.64,0,0,1-2.45.34c-2.69,0-4.16-1.19-4.16-3.64v-5Z"/><path id="aa05cffc-c599-4b6b-83bc-50587082573a" data-name="Path 279-2" d="M671.5,177.4H668V165.94h3.51ZM667.82,163a1.93,1.93,0,1,1,1.92,1.93h0A1.92,1.92,0,0,1,667.82,163Z"/><path id="bb4f8f77-8973-4217-9b77-7938790b59a7" data-name="Path 280-2" d="M675.8,165.94v-.69c0-2.62,1.56-4.18,4.65-4.18a8.38,8.38,0,0,1,1.87.21v2.9a7.21,7.21,0,0,0-1.39-.15c-1.08,0-1.62.41-1.62,1.28v.63h3v2.92h-3v8.54H675.8v-8.54h-2.52v-2.92Z"/><path id="a973c9f5-95bf-4e67-8789-481c1aa34e59" data-name="Path 281-2" d="M687.62,177.4h-3.51V165.94h3.51ZM683.94,163a1.93,1.93,0,1,1,1.93,1.93A1.92,1.92,0,0,1,683.94,163Z"/><path id="b475181a-bf56-4744-a693-034768e767eb" data-name="Path 282-2" d="M693.08,170.41h4.79a2.54,2.54,0,0,0-2.4-1.82,2.38,2.38,0,0,0-2.38,1.82Zm2.45-4.68c3.34,0,5.78,2.62,5.78,6.26v.87h-8.16a3,3,0,0,0,2.81,1.82,3.06,3.06,0,0,0,2.3-.87l2.32,2.06a6.86,6.86,0,0,1-4.79,1.73,6,6,0,0,1-6.23-5.79.71.71,0,0,0,0-.14,5.9,5.9,0,0,1,5.84-5.94Z"/><path id="b4c568f3-7533-4af9-91a8-2f745c63a130" data-name="Path 283-2" d="M709.24,174.56a3.37,3.37,0,0,0,2.43-.91v-4a3.56,3.56,0,0,0-2.43-.88,2.9,2.9,0,1,0,0,5.8Zm2.47,2a5.08,5.08,0,0,1-3.07,1,5.88,5.88,0,1,1,.27-11.76,6.08,6.08,0,0,1,2.76.76v-4.31l3.51-.76v15.93h-3.47v-.85Z"/><path id="f0d6c6d4-6f86-4a86-909c-598c2b03a48d" data-name="Path 284-2" d="M685.63,88C692.72,88,703,86.52,703,78a8.13,8.13,0,0,0-.18-2L698.6,57.54c-1-4.07-1.84-5.92-8.93-9.5-5.51-2.84-17.49-7.53-21-7.53-3.3,0-4.28,4.32-8.2,4.32s-6.6-3.21-10.15-3.21-5.62,2.35-7.34,7.16c0,0-4.77,13.56-5.38,15.54a3.44,3.44,0,0,0-.12,1.11C637.44,70.7,658,88,685.63,88m18.47-6.54c1,4.69,1,5.18,1,5.8,0,8-8.93,12.46-20.67,12.46-26.54,0-49.78-15.66-49.78-26a10.62,10.62,0,0,1,.85-4.2c-9.54.49-21.89,2.22-21.89,13.2,0,18,42.32,40.21,75.83,40.21,25.69,0,32.17-11.72,32.17-21,0-7.28-6.24-15.54-17.49-20.47"/><path id="b2b56df6-2214-44e6-8df5-a3275df77e45" data-name="Path 285-2" d="M627.49,215.1h10.16v1.82h-8.09v4.13h5.31v1.77h-5.31v4.25h8.17v1.82H627.49Z"/><path id="a76a43b2-82e8-4aeb-b04a-b3f5d66f924a" data-name="Path 286-2" d="M639.75,218.87h2v1a4.11,4.11,0,0,1,3-1.2,3.73,3.73,0,0,1,3.9,3.56v6.65h-1.95v-6a2.35,2.35,0,0,0-2.12-2.54h-.38a2.82,2.82,0,0,0-2.47,1.3v7.2h-2v-10Z"/><path id="bb4bcfaf-7f91-42c5-abb5-dd3e48b5aa04" data-name="Path 287-2" d="M656.05,227.25a3.58,3.58,0,0,0,2.75-1.16v-4.53a3.61,3.61,0,0,0-2.75-1.16,3.43,3.43,0,0,0,0,6.85Zm-5.28-3.42a5.06,5.06,0,0,1,5-5.14h.11a4.86,4.86,0,0,1,3,1v-.83h1.94V229c0,2.64-1.65,4.06-4.58,4.06a8.35,8.35,0,0,1-4-1l.77-1.54a6.8,6.8,0,0,0,3.21.87c1.75,0,2.68-.81,2.68-2.39V227.9a4.68,4.68,0,0,1-3,1.06,5,5,0,0,1-5-5v-.11Z"/><path id="e21fd831-99d2-4d3a-a304-4ec0d93ee549" data-name="Path 288-2" d="M665.34,228.89h-2v-10h2v10ZM663.14,216a1.2,1.2,0,1,1,1.22,1.22,1.22,1.22,0,0,1-1.22-1.22Z"/><path id="e8a77c4e-003c-4bb4-a5f1-4d6c84563e6b" data-name="Path 289-2" d="M667.94,218.87h2v1a4.1,4.1,0,0,1,3-1.2,3.72,3.72,0,0,1,3.9,3.56,2,2,0,0,1,0,.35v6.3h-1.94v-6a2.35,2.35,0,0,0-2.12-2.54h-.38a2.8,2.8,0,0,0-2.46,1.3v7.2h-2v-10Z"/><path id="b0f76c13-2394-4cb3-9c96-fe55b368c85f" data-name="Path 290-2" d="M680.93,223h5.94a3,3,0,0,0-5.94,0Zm3.05-4.33a5,5,0,0,1,4.85,5.07,1,1,0,0,1,0,.17v.57h-7.91a3.38,3.38,0,0,0,3.38,2.87,3.89,3.89,0,0,0,2.54-.88l1.26,1.24a5.91,5.91,0,0,1-3.87,1.31A5.15,5.15,0,0,1,679,224v-.15a5,5,0,0,1,4.91-5.15Z"/><path id="b7aba283-8c5c-4f18-a4b6-d663c45c5ad9" data-name="Path 291-2" d="M692.53,223h6a3,3,0,0,0-6,0Zm3.06-4.33a5,5,0,0,1,4.85,5.07,1,1,0,0,0,0,.17v.57h-7.92a3.39,3.39,0,0,0,3.39,2.87,3.89,3.89,0,0,0,2.54-.88l1.26,1.24a5.92,5.92,0,0,1-3.88,1.31,5.14,5.14,0,0,1-5.25-5.05.38.38,0,0,1,0-.15,5,5,0,0,1,4.91-5.15Z"/><path id="b1f60c24-9f13-486c-841d-0dfdef96b4eb" data-name="Path 292-2" d="M702.48,218.87h2v1.24a3.22,3.22,0,0,1,2.73-1.46,3,3,0,0,1,1,.16v1.77a3.68,3.68,0,0,0-1.18-.22,2.7,2.7,0,0,0-2.58,1.82v6.71h-2Z"/><path id="af94c899-8974-4feb-9c48-6be47fd976cd" data-name="Path 293-2" d="M716.59,196.57h-98v-1h98Z"/></g><path id="ff759909-a73f-4421-b131-1c3e1585b3a9" data-name="Path 456" class="bfac5e94-6506-4e59-8562-044eab830567" d="M-.41-.48h165.5v275H-.41Z"/><g id="e975b98b-c25f-406d-b5cb-7873a66f62f2" data-name="Group 104"><path id="b945da63-a7bd-4eea-9779-0039dfebde36" data-name="Path 192" d="M117.82,75.75a7.93,7.93,0,0,1,.18,1.94c0,8.44-10.27,9.91-17.37,9.91C73,87.6,52.44,70.45,52.44,65.22a3.41,3.41,0,0,1,.12-1.1l-2.08,5.14a10.6,10.6,0,0,0-.85,4.16c0,10.27,23.24,25.8,49.78,25.8,11.74,0,20.67-4.4,20.67-12.35,0-.61,0-1.1-1-5.75l-1.28-5.36Z"/><path id="f2545726-8904-4b31-8997-5390c640ec4b" data-name="Path 193" d="M39.08,139v3.91h4.2a2,2,0,0,0,.46-3.91,1.77,1.77,0,0,0-.46,0Zm-4.25-3.64h8.85c3.66,0,6.11,2.4,6.11,5.52a5.25,5.25,0,0,1-3.24,4.87l3.78,6.92H45.58l-3.26-6.3H39.08v6.3H34.83v-17.3Z"/><path id="f82bf25e-2c9b-4b8d-a499-0c782ff14808" data-name="Path 194" d="M54.88,144.67h5.47a2.89,2.89,0,0,0-2.75-2.08,2.72,2.72,0,0,0-2.72,2.08Zm2.8-5.35c3.81,0,6.6,3,6.6,7.15v1H55a3.37,3.37,0,0,0,3.21,2.08,3.58,3.58,0,0,0,2.62-1l2.65,2.35a7.84,7.84,0,0,1-5.47,2,6.86,6.86,0,0,1-7.11-6.61.86.86,0,0,1,0-.16,6.72,6.72,0,0,1,6.66-6.78Z"/><path id="ac9aa8ca-3992-436b-a041-39a8af9db295" data-name="Path 195" d="M73.55,149.39a3.88,3.88,0,0,0,2.77-1v-4.57a4,4,0,0,0-2.77-1,3.32,3.32,0,0,0-.23,6.63Zm2.82,2.27a5.85,5.85,0,0,1-3.51,1.14,6.71,6.71,0,1,1,.33-13.42,6.62,6.62,0,0,1,3.13.86v-4.92l4-.87v18.18h-4v-1Z"/><path id="eafdb37f-09c5-4843-8c86-09ee83743749" data-name="Path 196" d="M88.76,135.32H93V142h7.12v-6.65h4.25v17.31h-4.25v-6.78H93v6.77H88.76Z"/><path id="f64da7df-f2d0-4d61-b5f6-21bed58ecac2" data-name="Path 197" d="M112.6,150a4.94,4.94,0,0,0,2.5-.62v-1.68a10.47,10.47,0,0,0-2.37-.3c-1.31,0-2.18.42-2.18,1.29s.77,1.31,2.06,1.31Zm-5.86-1.24c0-2.52,2-3.93,5.39-3.93a11.91,11.91,0,0,1,3,.37v-.64c0-1.31-.84-2-2.5-2a10.72,10.72,0,0,0-4,1l-1.43-3a14.64,14.64,0,0,1,6.11-1.43c3.58,0,5.73,1.76,5.73,4.94v8.39h-4v-.79a6.19,6.19,0,0,1-3.62,1c-2.91,0-4.74-1.76-4.74-4.06Z"/><path id="bd47808f-f640-42ec-8352-dae4169cdee7" data-name="Path 198" d="M123.33,142.88h-2.64v-3.33h2.64v-3.36l4-.87v4.23H131v3.34h-3.66v5c0,1.18.47,1.58,1.73,1.58a6.09,6.09,0,0,0,1.8-.27v3.24a12.52,12.52,0,0,1-2.79.4c-3.07,0-4.75-1.36-4.75-4.16v-5.76Z"/><path id="bba6c6a8-13a7-49ca-8312-37d777594eef" data-name="Path 199" d="M46.09,172.29l2.43,2.38a8.25,8.25,0,0,1-6.28,2.9,7.75,7.75,0,0,1-.63-15.49h.63A8.29,8.29,0,0,1,48.62,165l-2.49,2.45a4.76,4.76,0,0,0-3.89-2A4.21,4.21,0,0,0,38,169.65v.19a4.26,4.26,0,0,0,4.22,4.31h.18a4.61,4.61,0,0,0,3.71-1.87Z"/><path id="bb62a372-f85b-47d3-9ef5-46eddd3c8c40" data-name="Path 200" d="M52.89,170.44h4.75a2.51,2.51,0,0,0-2.38-1.8A2.37,2.37,0,0,0,52.89,170.44Zm2.43-4.64c3.31,0,5.74,2.6,5.74,6.21v.86H53a2.94,2.94,0,0,0,2.79,1.8,3.08,3.08,0,0,0,2.28-.86l2.3,2a6.87,6.87,0,0,1-4.75,1.72,6,6,0,0,1-6.18-5.74.76.76,0,0,1,0-.15,5.83,5.83,0,0,1,5.79-5.88.66.66,0,0,1,.14,0Z"/><path id="e783352a-84a7-4fc4-889a-70cc1b6d56c9" data-name="Path 201" d="M63.07,166h3.48v1.14a3.75,3.75,0,0,1,3-1.4,2.56,2.56,0,0,1,1.31.28v3a3.9,3.9,0,0,0-1.65-.34,3.08,3.08,0,0,0-2.64,1.44v7.21H63.07V166Z"/><path id="ab7aa9a4-bb91-476e-8905-0c8ab8ea73d9" data-name="Path 202" d="M74.61,168.89h-2.3V166h2.3v-2.92l3.48-.75V166h3.18v2.9H78.09v4.32c0,1,.41,1.38,1.5,1.38a5.13,5.13,0,0,0,1.56-.24v2.81a10.39,10.39,0,0,1-2.42.34c-2.67,0-4.13-1.18-4.13-3.61v-5Z"/><path id="e25f799c-0c43-40ed-a281-98ca51563808" data-name="Path 203" d="M86.48,177.36H83V166h3.48ZM82.83,163a1.91,1.91,0,1,1,1.91,1.91A1.92,1.92,0,0,1,82.83,163Z"/><path id="eafb3d9c-a107-4470-a732-8c20d3bbfe64" data-name="Path 204" d="M90.82,166v-.68c0-2.6,1.55-4.15,4.62-4.15a8.28,8.28,0,0,1,1.85.22v2.87a8.09,8.09,0,0,0-1.38-.15c-1.07,0-1.61.41-1.61,1.27V166h3v2.9h-3v8.47H90.82v-8.47h-2.5V166Z"/><path id="bcc81f5f-af81-4b19-9a3a-982eed8deae0" data-name="Path 205" d="M102.61,177.36H99.13V166h3.48ZM99,163a1.91,1.91,0,1,1,1.91,1.91A1.92,1.92,0,0,1,99,163Z"/><path id="f303479f-eb8b-4e68-9872-2e63e7b96179" data-name="Path 206" d="M108.13,170.44h4.75a2.52,2.52,0,0,0-2.39-1.8A2.37,2.37,0,0,0,108.13,170.44Zm2.43-4.64c3.3,0,5.73,2.6,5.73,6.21v.86h-8.1a2.94,2.94,0,0,0,2.79,1.8,3.06,3.06,0,0,0,2.28-.86l2.3,2a6.83,6.83,0,0,1-4.75,1.72,6,6,0,0,1-6.18-5.74v-.15a5.82,5.82,0,0,1,5.78-5.88.75.75,0,0,1,.15,0Z"/><path id="e673c18b-b5cf-477b-82f1-8bebaf83960f" data-name="Path 207" d="M124.34,174.54a3.31,3.31,0,0,0,2.41-.9v-4a3.54,3.54,0,0,0-2.41-.88,2.88,2.88,0,1,0-.18,5.76Zm2.45,2a5.12,5.12,0,0,1-3.05,1,5.83,5.83,0,1,1,3-10.91v-4.28l3.48-.75v15.79h-3.44v-.84Z"/><path id="a5d9dba5-3947-4ff2-bae6-86ca258e92ac" data-name="Path 208" class="b9ae2a2b-6777-453c-bde4-45990af1c8c0" d="M100.63,87.61c7.09,0,17.37-1.47,17.37-9.91a7.93,7.93,0,0,0-.18-1.94L113.6,57.4c-1-4-1.84-5.88-8.93-9.42-5.51-2.82-17.49-7.46-21-7.46-3.3,0-4.28,4.28-8.2,4.28s-6.6-3.18-10.15-3.18-5.63,2.32-7.34,7.09c0,0-4.77,13.46-5.38,15.41a3.42,3.42,0,0,0-.13,1.1c0,5.23,20.59,22.38,48.19,22.38m18.47-6.48c1,4.65,1,5.14,1,5.75,0,7.95-8.93,12.35-20.67,12.35-26.54,0-49.78-15.53-49.78-25.81a10.39,10.39,0,0,1,.86-4.15c-9.54.49-21.9,2.2-21.9,13.08,0,17.86,42.32,39.88,75.84,39.88,25.68,0,32.16-11.62,32.16-20.8,0-7.21-6.23-15.41-17.49-20.3"/><path id="a55e3b02-b921-4118-8ca3-23833bb4c670" data-name="Path 209" d="M42.38,215.25H52.45v1.8h-8v4.1H49.7v1.76H44.43v4.22h8.1v1.8H42.38Z"/><path id="a3d4cd0c-761a-45d6-9ba7-d77b15ed3f0f" data-name="Path 210" d="M54.77,219h1.95v1a4.07,4.07,0,0,1,3-1.19,3.71,3.71,0,0,1,3.87,3.53v6.61H61.64V223a2.32,2.32,0,0,0-2.1-2.52,2.41,2.41,0,0,0-.38,0,2.8,2.8,0,0,0-2.44,1.29v7.14H54.77V219Z"/><path id="a5bd8f8a-9036-4bcf-8a18-fb0471470063" data-name="Path 211" d="M71,227.3a3.58,3.58,0,0,0,2.73-1.15v-4.49A3.58,3.58,0,0,0,71,220.51a3.4,3.4,0,0,0,0,6.79Zm-5.24-3.4a5,5,0,0,1,4.93-5.1h.11a4.84,4.84,0,0,1,3,1V219h1.93v10c0,2.61-1.64,4-4.55,4a8.22,8.22,0,0,1-4-1l.76-1.52a6.74,6.74,0,0,0,3.19.86c1.73,0,2.65-.8,2.65-2.36V228a4.63,4.63,0,0,1-3,1.05,5,5,0,0,1-5-5v-.12Z"/><path id="bd04cb8c-1c69-46c0-96b2-280d9e002a8b" data-name="Path 212" d="M80.33,228.92h-2V219h2Zm-2.19-12.75a1.2,1.2,0,1,1,1.21,1.22,1.22,1.22,0,0,1-1.21-1.22Z"/><path id="a2600968-6db9-41d8-9329-9d3dcdbd6b76" data-name="Path 213" d="M83,219h2v1a4.06,4.06,0,0,1,3-1.19,3.71,3.71,0,0,1,3.87,3.53v6.61H89.86V223a2.33,2.33,0,0,0-2.11-2.52,2.29,2.29,0,0,0-.37,0,2.79,2.79,0,0,0-2.44,1.29v7.14H83V219Z"/><path id="b19b9b22-cdf3-4d5f-9320-a7b84469bc74" data-name="Path 214" d="M96,223.12h5.9a3,3,0,0,0-5.9,0Zm3-4.3a4.93,4.93,0,0,1,4.81,5,.86.86,0,0,1,0,.16v.56H96a3.34,3.34,0,0,0,3.35,2.85,3.8,3.8,0,0,0,2.52-.88l1.25,1.23a5.79,5.79,0,0,1-3.85,1.31,5.11,5.11,0,0,1-5.21-5v-.14a5,5,0,0,1,4.87-5.11Z"/><path id="f8663138-d0f6-4c43-a37c-be960f5798ec" data-name="Path 215" d="M107.58,223.12h5.9a3,3,0,0,0-5.9,0Zm3-4.3a4.92,4.92,0,0,1,4.8,5v.72h-7.85a3.34,3.34,0,0,0,3.36,2.85,3.82,3.82,0,0,0,2.52-.88l1.25,1.23a5.81,5.81,0,0,1-3.85,1.31,5.11,5.11,0,0,1-5.21-5v-.14a5,5,0,0,1,4.87-5.11Z"/><path id="f0060451-b4cb-4314-9332-b1048346e258" data-name="Path 216" d="M117.64,219h2v1.22a3.21,3.21,0,0,1,2.71-1.44,2.73,2.73,0,0,1,1,.16v1.75a3.61,3.61,0,0,0-1.17-.21,2.67,2.67,0,0,0-2.56,1.8v6.66h-2V219Z"/><path id="f8f78716-fe71-4517-a32c-4cafea40ad35" data-name="Path 217" d="M131.63,196.87H33.52v-1h98.11Z"/></g></svg>