<svg xmlns="http://www.w3.org/2000/svg" height="800" width="1200" viewBox="-86.2422 -40.80625 747.4324 244.8375"><g fill-rule="evenodd" fill="none"><path fill="#645A53" d="M529.906 140.22h16.498l28.544-72.335h-16.33L546.82 103.91l-12.43-36.026h-18.227l21.703 52.25zm-81.882-55.164v37.079H431.38v-54.25h11.694l3.477 4.739c4.528-3.79 9.374-6.005 14.957-6.005 7.48 0 13.168 2.214 16.644 7.694 5.056-4.638 10.43-7.694 17.278-7.694 12.851 0 20.331 6.639 20.331 24.652v30.864h-16.644V93.168c0-8.322-3.372-10.746-8.745-10.746-3.16 0-5.792.841-8.743 2.738.213 1.897.317 3.897.317 6.111v30.864h-16.644V93.168c0-8.322-3.373-10.746-8.85-10.746-3.055 0-5.583.738-8.428 2.634zm-58.05 4.635h21.387c-1.16-7.056-4.953-10.429-10.64-10.429-4.848 0-9.48 2.845-10.746 10.43zm11.906 33.499c-16.013 0-28.866-7.901-28.866-28.76 0-19.489 12.432-27.914 26.759-27.914 17.275 0 24.966 12.112 24.966 31.18h-34.87c1.16 9.375 6.955 12.116 14.645 12.116 7.438 0 13.256-1.836 17.758-4.865l-2.26 13.203c-4.296 3.319-9.453 5.04-18.132 5.04zm-61.976-14.01c3.791 0 6.636-.634 9.585-2.845V82.74c-2.632-1.583-5.264-2.318-9.057-2.318-8.112 0-12.747 5.477-12.747 14.64 0 8.957 4.742 14.12 12.22 14.12zm12.851 8.954c-4.318 3.266-9.268 5.266-16.327 5.266-14.854 0-25.597-9.164-25.597-28.021 0-18.751 12.325-28.863 28.125-28.863 3.687 0 7.27.527 10.533 1.79V45.279h16.647v76.856H355.6zM240.307 90.006V49.8h17.275v39.89c0 14.327 6.425 17.276 15.275 17.276 9.587 0 14.537-4.215 14.537-17.276V49.8h17.382v40.206c0 23.703-10.323 33.605-32.76 33.605-20.86 0-31.71-8.533-31.71-33.605z"/><path fill="#EA5252" d="M196.279 93.02a5.31 5.31 0 00-2.347-1.102c-5.067 5.05-11.25 10.37-16.74 13.945-2.534 1.684-5.72 2.525-7.83 2.525-4.856 0-6.966-4.63-7.6-11.99-.844-9.885-1.414-21.726-1.414-40.027 0-18.77-4.26-31.53-15.608-32.532a16.71 16.71 0 00-1.47-.072c-6.966 0-10.344 3.575-14.777 12.622-3.799 7.781-9.71 19.14-20.685 40.595-9.5 18.511-20.054 34.918-29.132 46.277-2.528 3.149-4.526 5.312-6.404 6.542-1.255.826-2.46 1.24-3.727 1.24-3.583 0-6.199-3.024-7.073-10.065-.207-1.673-.317-3.572-.317-5.711 0-14.513 5.49-38.073 14.987-72.78C83.108 17.245 80.154 0 64.954 0h-.17l-.011.003c-3.442.04-6.295 1.286-9.044 3.45-2.707 2.13-5.416 6.734-7.944 12.922C44.935 23.346 27.604 58.11.02 76.019c-.325 6.81 3.53 13.616 11.34 14.354 7.11.673 12.158-2.323 18.658-6.69a1796.87 1796.87 0 00-2.576 11.668c-.495 2.273-.81 3.735-.903 4.14a116.164 116.164 0 00-1.966 11.812c-3.89 34.766 12.225 51.922 31.096 51.922 3.154 0 6.278-.376 9.382-1.164 20.792-5.272 40.808-29.122 64.5-84.025-.359 5.972-.396 11.55-.138 16.727 1.561 31.466 14.007 40.906 31.591 40.906 13.298 0 25.752-6.94 32.084-15.565 4.646-6.1 6.545-12.832 6.545-18.09 0-4.081-1.294-7.34-3.353-8.994"/></g></svg>