<?xml version="1.0" standalone="no"?>
<!DOCTYPE svg PUBLIC "-//W3C//DTD SVG 20010904//EN"
 "http://www.w3.org/TR/2001/REC-SVG-20010904/DTD/svg10.dtd">
<svg version="1.0" xmlns="http://www.w3.org/2000/svg"
 width="1500.000000pt" height="375.000000pt" viewBox="0 0 1500.000000 375.000000"
 preserveAspectRatio="xMidYMid meet">

<g transform="translate(0.000000,375.000000) scale(0.100000,-0.100000)"
fill="#000000" stroke="none">
<path d="M1334 3040 c-96 -19 -217 -107 -268 -194 -58 -99 -56 -69 -56 -1051
0 -799 2 -908 16 -956 43 -144 164 -256 312 -288 37 -8 319 -11 930 -11 969 0
943 -2 1051 63 98 59 171 170 191 288 14 87 14 1721 0 1808 -20 118 -93 229
-191 288 -108 65 -81 63 -1059 62 -487 -1 -904 -5 -926 -9z m550 -969 c313
-313 358 -362 353 -382 -8 -32 -707 -729 -731 -729 -18 0 -189 158 -207 192
-7 12 -5 27 5 45 8 16 116 129 240 253 175 174 226 231 226 250 0 20 -53 78
-234 259 -129 129 -237 243 -240 255 -4 15 17 43 91 118 61 61 104 98 117 98
14 0 139 -118 380 -359z m1264 -793 c8 -8 12 -54 12 -143 0 -89 -4 -135 -12
-143 -17 -17 -919 -17 -936 0 -8 8 -12 54 -12 143 0 89 4 135 12 143 17 17
919 17 936 0z"/>
<path d="M11320 2515 l0 -115 110 0 110 0 0 115 0 115 -110 0 -110 0 0 -115z"/>
<path d="M6300 2311 l0 -279 -37 35 c-49 44 -143 90 -212 103 -292 54 -563
-118 -636 -405 -19 -77 -19 -250 0 -334 50 -210 204 -362 410 -406 88 -18 152
-19 236 -1 81 18 154 53 194 96 l30 32 5 -69 5 -68 113 -3 112 -3 0 791 0 790
-110 0 -110 0 0 -279z m-174 -394 c60 -30 117 -91 147 -155 18 -39 21 -66 22
-162 0 -111 -1 -118 -33 -183 -118 -239 -457 -234 -571 8 -45 96 -46 241 -2
341 35 78 113 146 201 175 14 5 61 7 105 5 62 -2 91 -8 131 -29z"/>
<path d="M10480 2290 l0 -110 -85 0 -85 0 0 -115 0 -115 84 0 85 0 4 -337 c2
-229 7 -350 15 -375 30 -90 122 -186 200 -208 66 -19 159 -23 224 -10 64 12
158 53 158 69 0 7 -19 60 -59 163 l-10 28 -38 -22 c-28 -17 -54 -23 -100 -23
-73 0 -105 19 -143 86 -25 44 -25 46 -28 337 l-3 292 146 0 146 0 -3 113 -3
112 -137 3 -138 3 0 109 0 110 -115 0 -115 0 0 -110z"/>
<path d="M4610 2169 c-76 -11 -156 -42 -227 -88 -160 -103 -253 -308 -239
-524 17 -263 174 -457 421 -522 81 -22 270 -22 350 0 88 23 159 60 217 114
l52 47 -68 82 c-37 45 -70 82 -73 82 -3 0 -23 -16 -46 -35 -67 -58 -136 -79
-252 -80 -89 0 -107 3 -160 28 -69 32 -119 76 -146 129 l-19 36 48 11 c26 5
205 42 397 81 193 39 358 73 369 76 17 6 18 13 13 79 -21 245 -196 438 -436
481 -84 15 -120 15 -201 3z m236 -237 c52 -26 129 -111 144 -158 7 -19 10 -37
8 -39 -1 -2 -131 -29 -288 -60 -157 -31 -294 -59 -304 -62 -18 -5 -19 -1 -13
57 13 120 72 211 170 260 58 30 67 31 152 28 67 -3 101 -10 131 -26z"/>
<path d="M6760 1808 c0 -412 6 -464 60 -575 33 -66 115 -150 180 -183 88 -45
241 -49 353 -11 61 21 92 39 155 89 l42 33 0 -70 0 -71 110 0 110 0 0 580 0
580 -109 0 -110 0 -3 -347 c-3 -401 -3 -399 -100 -496 -63 -64 -122 -87 -218
-87 -115 0 -198 57 -232 159 -7 24 -13 159 -15 404 l-5 367 -109 0 -109 0 0
-372z"/>
<path d="M8406 2165 c-132 -34 -250 -119 -325 -235 -59 -92 -82 -167 -88 -293
-7 -135 7 -208 58 -315 71 -147 206 -254 369 -293 139 -33 327 -7 432 60 82
52 193 187 163 198 -6 2 -48 28 -95 58 l-85 54 -43 -49 c-63 -72 -136 -105
-232 -104 -99 0 -164 28 -228 98 -66 73 -87 136 -87 261 0 87 4 107 26 156 52
110 126 168 242 190 105 19 229 -30 286 -113 16 -23 32 -35 41 -32 23 8 180
108 180 115 0 4 -18 33 -40 66 -45 69 -125 129 -215 163 -77 30 -268 37 -359
15z"/>
<path d="M9520 2165 c-89 -20 -181 -67 -224 -115 -20 -22 -36 -44 -36 -49 0
-7 189 -101 205 -101 4 0 23 13 41 30 44 38 100 53 204 52 105 0 159 -14 199
-51 29 -27 31 -33 31 -103 l0 -74 -168 -12 c-191 -13 -294 -36 -399 -87 -87
-43 -154 -113 -180 -188 -26 -76 -23 -188 8 -252 59 -126 210 -205 389 -205
116 0 210 26 353 98 4 2 7 -16 7 -41 0 -42 2 -45 31 -51 17 -3 67 -6 111 -6
l79 0 -3 443 c-3 402 -5 446 -22 492 -37 99 -102 162 -217 207 -71 28 -308 36
-409 13z m430 -715 l0 -110 -50 -39 c-203 -161 -519 -93 -461 99 31 103 169
155 424 159 l87 1 0 -110z"/>
<path d="M11320 1595 l0 -586 108 3 107 3 0 580 0 580 -107 3 -108 3 0 -586z"/>
<path d="M11752 2123 c13 -32 115 -294 229 -583 l206 -525 130 -3 c99 -2 132
1 136 10 2 7 100 249 217 538 117 289 221 546 231 573 l19 47 -124 0 -124 0
-173 -430 c-95 -236 -177 -426 -181 -422 -4 4 -81 196 -171 427 l-164 420
-126 3 -127 3 22 -58z"/>
<path d="M13373 2165 c-245 -53 -433 -298 -433 -563 0 -104 17 -178 64 -270
49 -98 105 -163 183 -214 145 -96 309 -127 498 -93 100 18 206 69 264 128 l43
45 -67 81 -68 81 -31 -25 c-17 -14 -60 -40 -96 -58 -61 -30 -71 -32 -175 -32
-98 0 -116 3 -165 26 -30 14 -72 44 -93 65 -38 38 -72 92 -64 100 2 2 181 40
398 84 217 45 402 83 413 86 16 6 18 14 14 78 -24 335 -338 556 -685 481z
m270 -228 c56 -23 136 -106 155 -161 8 -21 12 -39 10 -41 -1 -2 -131 -29 -288
-60 -157 -31 -294 -59 -304 -62 -18 -5 -19 -1 -14 59 18 225 232 353 441 265z"/>
</g>
</svg>
